  <svg xmlns="http://www.w3.org/2000/svg" viewBox="0 0 800 600">
    <!-- Background felt -->
    <rect width="800" height="600" fill="#0A5F2C" />

    <!-- Dealer card placement outline - moved above the title -->
    <rect x="360" y="10" width="70" height="100" rx="5" ry="5" fill="none" stroke="#D4AF37" stroke-width="2" />

    <!-- Royal Blackjack text below dealer card -->
    <text x="400" y="180" fill="#D4AF37" font-family="Times New Roman, serif" font-size="28" font-weight="bold" text-anchor="middle">ROYAL BLACKJACK</text>

    <!-- BLACKJACK PAYS 3 TO 2 -->
    <text x="400" y="230" fill="#D4AF37" font-family="serif" font-size="24" font-weight="bold" text-anchor="middle">BLACKJACK PAYS 3 TO 2</text>

  <!-- Dealer rules text - moved up -->
  <text x="400" y="320" fill="#D4AF37" font-family="serif" font-size="22" font-weight="bold" text-anchor="middle">Dealer must draw to 16 and stand on all 17's</text>

  <!-- Left text: PAYS 2 TO 1 -->
  <text x="200" y="345" fill="#D4AF37" font-family="serif" font-size="22" font-weight="bold" text-anchor="middle">PAYS 2 TO 1</text>

  <!-- INSURANCE text -->
  <text x="400" y="345" fill="#D4AF37" font-family="serif" font-size="22" font-weight="bold" text-anchor="middle">INSURANCE</text>

  <!-- Right text: PAYS 2 TO 1 -->
  <text x="600" y="345" fill="#D4AF37" font-family="serif" font-size="22" font-weight="bold" text-anchor="middle">PAYS 2 TO 1</text>

  <!-- Decorative banner shape with a zigzag pattern -->
  <path d="M100,295 L700,295 L720,325 L680,355 L120,355 L80,325 Z" fill="none" stroke="#D4AF37" stroke-width="2" />
  <path d="M100,295 L700,295 L720,325 L680,355 L120,355 L80,325 Z" fill="none" stroke="#D4AF37" stroke-width="2" />

  <!-- Card placement outlines - adjusted for better spacing -->
  <rect x="160" y="390" width="70" height="100" rx="5" ry="5" fill="none" stroke="#D4AF37" stroke-width="2" />
  <rect x="260" y="390" width="70" height="100" rx="5" ry="5" fill="none" stroke="#D4AF37" stroke-width="2" />
  <rect x="360" y="390" width="70" height="100" rx="5" ry="5" fill="none" stroke="#D4AF37" stroke-width="2" />
  <rect x="460" y="390" width="70" height="100" rx="5" ry="5" fill="none" stroke="#D4AF37" stroke-width="2" />
  <rect x="560" y="390" width="70" height="100" rx="5" ry="5" fill="none" stroke="#D4AF37" stroke-width="2" />

  <circle cx="195" cy="540" r="30" fill="none" stroke="#D4AF37" stroke-width="2" />
  <circle cx="295" cy="540" r="30" fill="none" stroke="#D4AF37" stroke-width="2" />
  <circle cx="395" cy="540" r="30" fill="none" stroke="#D4AF37" stroke-width="2" />
  <circle cx="495" cy="540" r="30" fill="none" stroke="#D4AF37" stroke-width="2" />
  <circle cx="595" cy="540" r="30" fill="none" stroke="#D4AF37" stroke-width="2" />
</svg>